/* XPM */
static char *_11030ccfaa3406ed7912785c5e3e785G6VvxTEkBPmbT17j[] = {
/* columns rows colors chars-per-pixel */
"51 51 53 1 ",
"  c #301D09",
". c #321F0B",
"X c #34200A",
"o c #3E2409",
"O c #3E260C",
"+ c #43280B",
"@ c #462B0F",
"# c #482A0A",
"$ c #50300D",
"% c #54320D",
"& c #57340E",
"* c #5D370F",
"= c #61390E",
"- c #6A3E0F",
"; c #6E400F",
": c #6A4013",
"> c #6E4315",
", c #724412",
"< c #7B4811",
"1 c #7B4913",
"2 c #774919",
"3 c #774A19",
"4 c #1E364B",
"5 c #254158",
"6 c #24415A",
"7 c #284864",
"8 c #284B69",
"9 c #2C4D68",
"0 c #255069",
"q c #31526B",
"w c #2F5576",
"e c #315674",
"r c #35607A",
"t c #3A627F",
"y c #586A75",
"u c #915E26",
"i c #B0773B",
"p c #C69F76",
"a c #396589",
"s c #3A7DA4",
"d c #416D8D",
"f c #417086",
"g c #487D96",
"h c #647883",
"j c #4680A2",
"k c #4C81A7",
"l c #5694B2",
"z c #5397BF",
"x c #65AFD2",
"c c #85888B",
"v c gray61",
"b c #9D9D9D",
"n c gray86",
/* pixels */
"aakksaaw8wwaaassskkksaaaaaaaaaasssssawwaaaaaaaww888",
"aakkksaaaaassskzzzzzkkssssssssskzzssssaskkkkaaaaw88",
"wakksaaaaaassszzzzzzkksssssssssszzzssasskkkkaaaaww8",
"8aaaawwwwaasssszzkkkkaaaaaaasssssssaaaakkkkaaaaaww8",
"8www888wwwaassszzskk888wwaaaassssswwwakkkk8888kwww8",
"8aww888zwwaaszzzzzzk88wwwaaaasszzkawwkkkk888888www8",
"waww8888wwaszzzzzzx88waaaaaa8skzz88waakkxww88888ww8",
"waawaa8wwasszzzzxx88waaaaaaawazx8ww8aazxwwwaa888aaw",
"aaawa88wassszzxxx8waaaaaaaawww888wwssawwwwaaaww8aaa",
"aaaw88waxxwssxxx8wazaaaaaaawww8888assswwaaaaawwwaaa",
"aaaw88akkz88szx88azzxaaaaa88ww888assssaaaaaaawwaaaa",
"aaaawakkkz88aaa8wxsssszxxw88waw8wasssssaaaaawwwwaaa",
"waaaakkkkxw8aa8wssssszzzxww8wwwwaasssssaaaawzs8waaw",
"waaakkkkkwwwaawsssszzzzzzwwwwwwwwassssaaaaaaaz88www",
"8aaaakkzzwwwwwzsszzzzzzzawwwwwwwwasssaaaaaaaaz88ww8",
"waaaakzzzwwwwkkszzzzzzzxwwwwwaakwaaaaaxaaaaaa888ww8",
"akaakkzzzwwwkkkkzzzzzzzxncwaaaaazaaakkzsaaaaa888ww8",
"kkkkkkzzwwaakkkkzzzzxzzb55baaaaaaaawzssssszzk888ww8",
"kkkksks8waaakkkzzzzzxzbtaa9vsaaaaaaxsssssszzz888aaa",
"kkkaza8waasskkkrrrfffhf55500y05544fqssssszzzz888aaa",
"kkka88wwassskkzrpiuuuuuuuu111111<<<qssszzzzzz988waa",
"kksa88wwassskkkri22;;22222:-::::::<qsszzzzzxww8wwaa",
"aaa888waassskkkru:22;::OO:OOO++><<=qzzzzzzxwww8waaa",
"aaa88waaassskkzru:;22,@@@>@,,++2,>=rzzzzzxxwwaaaaaa",
"www88aaaaaskkkzfu:->2@@@,,+,*++2>>=rzzxxxx8waaaaaaw",
"8www8aaasssskkxfu>22@+$>--,&+.22::=rzxxxxxwaaaaaww8",
"8www8aassssazxxfu:<<+++@$-%oX2@2>:=rxxxxxwaaaaawww8",
"8wwwwaassssazxxf=,,,#%%OO:+O%@@2>:$fxxxx8aaaaa88ww8",
"waaakkxssssazxxf=::,,,,++,++OoO>>:$fxxxxwwaaa888www",
"waaakkxssaazxxxf=::::::XX::::>>:::$fxxx8wwwz8888aaa",
"waaakzxkaaazxxxf=============$%#$$$fxx888kk88888aaa",
"waaakz8aaakxxxxf              XX   fx888asx8888waaa",
"waaakwwaakkxxxxgglllldddjj77eddlllllw888ak8w888aaaa",
"waaw88wa8zxxxxxxxxxxwkssszwwakxxxxxx888asxwas8aaaaa",
"wwa888w8zzxxxxxxxxxxwsssszwwwzxxxxxxwawak8wa8akaaaa",
"www8888kxzzxxxxxxxxaasssszwwwzzxxxx8aawk88888sxaaaa",
"www8888xxzzzxxxxxxxaasssszzwwzzxxxwaaaa88888skwwaaa",
"8ww888wxxzzxxxxxxxwassssszzwwkxxxxaaaaawx888zkwwaaa",
"8ww888kzzzzxxxxzzwwwssssszkwwkxxxaaaaasxxx8szaawaaw",
"8ww888zzzzzzxxzzzssasssszxxwwkxxwaaaazzxxxwwaaawaaw",
"waw888zzzzzzzzzzzzsxzssszxxwaaxwwawzsszzxwwwwaawaaw",
"aaaw8azzzzzzzzzzzzzzzssszzxwaak88zkssszzxwwwkk8waaw",
"aaaaazzxxzzzzzzzzzzzzssszzxw88888ksssszzawwkkk8waaa",
"aaaaszzxxxzzzzzzzzzzzsszzzx88888xsssszzz8wwkk88waaa",
"aaaakzzzxxxakkkkxzzzzsszzzx88888sssszzzz8wwk888waaa",
"aaaskzzzxxwaaskxkkkzzawkzzx88888ssssszz88888888akka",
"akkkkkzzzaww8assssszzaksskz8888saassssk8888888aakka",
"akkkkkkzaawwwaaassszaaassaaw88wwaassssaw88888waaaaa",
"akkzzzzaaawwaskzzzzzkksssksaaaasssssssaaawwaakkaaaa",
"akzzzzzkaawaskkkzzzzkksssssaaaassssssssawwasskkaaww",
"askkkkkaawwaaskkzzzkksaasssaaaassssssaawwaaassawwww"
};
