/* XPM */
static char *a253ad121a094bdaaf2b127b0df40579yeIy52P8XerZxzk4[] = {
/* columns rows colors chars-per-pixel */
"51 51 37 1 ",
"  c #231404",
". c #392106",
"X c #30210F",
"o c #101D28",
"O c #132432",
"+ c #172B3C",
"@ c #4B2D0E",
"# c #52320F",
"$ c #422E17",
"% c #61390E",
"& c #6A4013",
"* c #7B4913",
"= c #774D1F",
"- c #192F41",
"; c #1B3043",
": c #1C3042",
"> c #1D3549",
", c #213A4E",
"< c #243F55",
"1 c #21475D",
"2 c #28485B",
"3 c #2B495F",
"4 c #244D65",
"5 c #284B69",
"6 c #2F566C",
"7 c #305464",
"8 c #2F5576",
"9 c #345D76",
"0 c #3A6377",
"q c gray26",
"w c #915E26",
"e c #B0773B",
"r c #396589",
"t c #3A7DA4",
"y c #4C81A7",
"u c #5397BF",
"i c #65AFD2",
/* pixels */
"rryytrr8588rrrtttyyytrrrrrrrrrrtttttr88rrrrrrr88555",
"rryyytrrrrrtttyuuuuuyytttttttttyuuttttrtyyyyrrrr855",
"8ryytrrrrrrtttuuuuuuyyttttttttttuuuttrttyyyyrrrr885",
"5rrrr8888rrttttuuyyyyrrrrrrrtttttttrrrryyyyrrrrr885",
"5888555888rrtttuutyy55588rrrrttttt888ryyyy5555y8885",
"5r88555u88rrtuuuuuuy55888rrrrttuuyr88yyyy5555558885",
"8r88555588rtuuuuuui558rrrrrr5tyuu558rryyi8855555885",
"8rr8rr588rttuuuuii558rrrrrrr8rui5885rrui888rr555rr8",
"rrr8r558rtttuuiii58rrrrrrrr88855588ttr8888rrr885rrr",
"rrr8558rii8ttiii58rurrrrrrr8885555rttt88rrrrr888rrr",
"rrr855ryyu55tui55ruuirrrrr5588555rttttrrrrrrr88rrrr",
"rrrr8ryyyu55rrr58ittttuii8558r858rtttttrrrrr8888rrr",
"8rrrryyyyi85rr58tttttuuui8858888rrtttttrrrr8ut58rr8",
"8rrryyyyy888rr8ttttuuuuuu88888888rttttrrrrrrru55888",
"5rrrryyuu88888uttuuuuuuur88888888rtttrrrrrrrru55885",
"8rrrryuuu8888yytuuuuuuui88888rry8rrrrrirrrrrr555885",
"ryrryyuuu888yyyyuuuuuuui888rrrrrurrryyutrrrrr555885",
"yyyyyyuu88rryyyyuuuuiuui88rrrrrrrrr8utttttuuy555885",
"yyyytyt58rrryyyuuuuuiuiyrrrttrrrrrrittttttuuu555rrr",
"yyyrur58rrttyyyuuuiiiiirrrttttrr88iytttttuuuu555rrr",
"yyyr5588rtttyyuuuuiiiii88rttttrr88yytttuuuuuu5558rr",
"yytr5588rtttyyyuuuuiiii88rttttrr8iyyttuuuuui88588rr",
"rrr5558rrtttyyyuuuuiii888rrtttr8iyyyuuuuuui88858rrr",
"rrr558rrrtttyyuuuuuiir88rrrtrrryuyyuuuuuuii88rrrrrr",
"88855rrrrrtyyyuiuuiiir8rrrrrrrriuuuuuuiiii58rrrrrr8",
"58885rrrttttyyiiiiiiiirrtytrrtiuuuuuuiiiii8rrrrr885",
"58885rrttttruiiiiiiiiiry888ttuuuuuuuiiiii8rrrrr8885",
"58888rrttttruiiiiiiiiiti8888uuuuuuiiiiii5rrrrr55885",
"8rrryyittttruiiiiiiiiiui8888uuuuuuiiiiii88rrr555888",
"8rrryyittrruiiiiiiiiiiui5888uuuuuiiiiii5888u5555rrr",
"8rrryuiyrrruiiiiiiiiiiiyiy88ruuuiiiiii555yy55555rrr",
"8rrryu5rrryiiiiiiiiiiiyyui88ryyiiiiii555rti55558rrr",
"8rrry88rryyiiiiiiiiiiyyyuu88ryyiiiii8555ry58555rrrr",
"8rr8558r5uiiiiiiiiii8ytttu88ryiiiiii555rti8rt5rrrrr",
"88r55585uuiiiiiiiiii8ttttu888uiiiiii8r8ry58r5ryrrrr",
"888555+306600000000,,11ttu888uuiiii5rr8y55555tirrrr",
"888555+***************1ttuu88uuiii8rrrr55555ty88rrr",
"588555;&q&&&&&&&&&&&q&1ttuu88yiiiirrrrr8i555uy88rrr",
"5885553&#.........=&#&1ttuy88yiiirrrrrtiii5turr8rr8",
"5885556&&$X$X$X$X=&&&&1tuii88yii8rrrruuiii88rrr8rr8",
"8r85556&&$X$X$X$=&& &&1tuii8rri88r8uttuui8888rr8rr8",
"rrr85r6&&$X$X$X=&& $&&1tuui8rry55uytttuui888yy58rr8",
"rrrrru6&&$X$X$=&& X$&%4tuui855555yttttuur88yyy58rrr",
"rrrrtu6&&$X$X=&& $X$&@62227OOO55ittttuuu588yy558rrr",
"rrrryu6&&$X$=&& X$X$&@&&&&&&&O5554440999->>7o558rrr",
"rrrtyu6&&$X=&& $X$X$&@&....&&O554ewwwww*****+55ryyr",
"ryyyyy6&&$=&& X$X$X$&@&X$X& &O5t1w&&&&&&%&&%:5rryyr",
"ryyyyy3&&&&& $X$X$X$&@&X$& X&O88<w&&&=====&%;8rrrrr",
"ryyuuu6&#&& X$X$X$X$#@&X& $X&:rt4w&&&=====&%<yyrrrr",
"ryuuuu6&q%%%%%%%%%%%q@&& X$X&:rt4%&%&&&&&&&%5yyrr88",
"rtyyyy3&&&&&&&&&&&&&&@&%%%%%&:rt4%%%%%%%%%%%4tr8888"
};
