/* XPM */
static char *b980411e23ea4a78cf9bbc8526e35c1fW7J6oFEkjZaDAPxQ[] = {
/* columns rows colors chars-per-pixel */
"51 51 111 2 ",
"   c #04070A",
".  c #060A0E",
"X  c #060B0F",
"o  c #090E11",
"O  c #080D12",
"+  c #081015",
"@  c #0A1115",
"#  c #0A1118",
"$  c #0B1318",
"%  c #0D161B",
"&  c #161616",
"*  c #0F1B26",
"=  c #111E2A",
"-  c #17272F",
";  c #152431",
":  c #152D3A",
">  c #1B2E3B",
",  c #182D3F",
"<  c #222222",
"1  c #232323",
"2  c #2A2A2A",
"3  c #2C2C2C",
"4  c #1A3042",
"5  c #1D3347",
"6  c #1E3644",
"7  c #1D364B",
"8  c #1E364B",
"9  c #243E4B",
"0  c #233D53",
"q  c #223D54",
"w  c #244056",
"e  c #224059",
"r  c #234B63",
"t  c #254F67",
"y  c #294862",
"u  c #2B4D61",
"i  c #284864",
"p  c #2E4E65",
"a  c #284B69",
"s  c #305169",
"d  c #34596B",
"f  c #2F5576",
"g  c #2A5975",
"h  c #315674",
"j  c #325B73",
"k  c #365C77",
"l  c #355F78",
"z  c #3D697E",
"x  c #434343",
"c  c #494949",
"v  c gray31",
"b  c #535353",
"n  c gray33",
"m  c gray38",
"M  c #656565",
"N  c gray40",
"B  c #676767",
"V  c #686868",
"C  c #6A6A6A",
"Z  c gray43",
"A  c #6F6F6F",
"S  c #717171",
"D  c gray45",
"F  c gray48",
"G  c #7B7B7B",
"H  c gray49",
"J  c #396589",
"K  c #316A8B",
"L  c #3B6C88",
"P  c #3A7DA4",
"I  c #406E84",
"U  c #416D8D",
"Y  c #487D96",
"T  c #7D8285",
"R  c #4680A2",
"E  c #4C81A7",
"W  c #5694B2",
"Q  c #5397BF",
"!  c #65AFD2",
"~  c #858D92",
"^  c #8B9093",
"/  c #8C9195",
"(  c #939DA2",
")  c gray63",
"_  c gray64",
"`  c gray65",
"'  c gray67",
"]  c #D6DADE",
"[  c #D8DDE3",
"{  c #DDE2E6",
"}  c #DDE3E7",
"|  c #E1E1E1",
" . c #E5E6E6",
".. c #E5E6E7",
"X. c #E6E7E9",
"o. c #E1E7EC",
"O. c #EDEDEE",
"+. c #ECEEEF",
"@. c #EFEFEF",
"#. c #E6EBF0",
"$. c #E4EDF1",
"%. c #EDEFF0",
"&. c #EBF4F9",
"*. c #F3F4F4",
"=. c #F4F4F5",
"-. c #F4F5F5",
";. c #F4F5F6",
":. c #F4F6F7",
">. c #FBFCFC",
",. c #FBFCFD",
"<. c #FEFEFE",
/* pixels */
"J J E E P J J f a f f J J J P P P E E E P J J J J J J J J J J P P P P P J f f J J J J J J J f f a a a ",
"J J E E E P J J J J J P P P E Q Q Q Q Q E E P P P P P P P P P E Q Q P P P P J P E E E E J J J J f a a ",
"f J E E P J J J J J J P P P Q Q Q Q Q Q E E P P P P P P P P P P Q Q Q P P J P P E E E E J J J J f f a ",
"a J J J J f f f f J J P P P P Q Q E E E E J J J J J J J P P P P P P P J J J J E E E E J J J J J f f a ",
"a f f f a a a f f f J J P P P Q Q P E E a a a f f J J J J P P P P P f f f J E E E E a a a a E f f f a ",
"a J f f a a a Q f f J J P Q Q Q Q Q Q E a a f f f J J J J P P Q Q E J f f E E E E a a a a a a f f f a ",
"f J f f a a a a f f J P Q Q Q Q Q Q ! a a f J J J J J J a P E Q Q a a f J J E E ! f f a a a a a f f a ",
"f J J f J J a f f J P P Q Q Q Q ! ! a a f J J J J J J J f J Q ! a f f a J J Q ! f f f J J a a a J J f ",
"J J J f J a a f J P P P Q Q ! ! ! a h J J J J J J J J f f f a a a f f P P J f f f f J J J f f a J J J ",
"J J J f a a f J ! ! f P P ! ! ! a f J Q J J J J J J J f f f a a a a J P P P f f J J J J J f f f J J J ",
"J J J f a a J E E Q a a P Q ! a a J Q Q ! J J J J J a a f f a a a J P P P P J J J J J J J f f J J J J ",
"J J J h i h U U U R e e h h h q i W K K K K R W W i a a f J f a f J P P P P P J J J J J f f f f J J J ",
"f J J h y k k k k Y q 7 y y 7 0 g g g g g L L L Y i f a f f f f J J P P P P P J J J J f Q P a h J J f ",
"f J J h k p p p p 5 5 5 0 0 7 r r r r j j j j j L i f f f f f f f J P P P P J J J J J J J Q a a f f f ",
"a J J h y p p F F F F F F F F F F H G G F F j j y i f f f f f x 1 1 1 1 1 1 3 3 3 3 3 3 3 3 a a f f a ",
"f J J h y p F S S S S S S S S S D D D D S S F z q i f f f J x & & & & & & & & & & & & & & & 3 a f f a ",
"J E J h l p F S V V N C C C C C C C C C C S F z q i f J J J < & & & & & & & & & & & & & & & 3 a f f a ",
"E E E U k p F S V V N C C C v C C C C C C S F z q i J J J J < & & & & & & & & & & & & & & & 3 a f f a ",
"E E E U g p F S V N C B N b c v C C C C C S F p i h J P P J < & & & & & & & & & & & & & & & 3 a J J J ",
"E E E h L q G S N N N C C c c C C C N N N A F q i h P P P P 3 & & & & & & & & & & & & & & & 2 a J J J ",
"E E E h 7 , F S N N C C C v c c N N N N N A F 5 0 h P P P P 3 & & & & & & & & & & & & & & & 3 a f J J ",
"E E P h 7 , F S N C C C C C C N N C N N N A F 5 q j P P P P 3 & & & & & & & & & & & & & & & 3 h f J J ",
"J J J q 7 , F Z C C M C C C C N N N N N N A F 5 q h J P P P 3 & & & & & & & & & & & & & & & 3 h J J J ",
"J J J e 7 5 F Z C C C C C C C N N N N C C A F 5 i h J P J J 3 & & & & & & & & & & & & & & & 3 J J J J ",
"h f f q 8 q H D C B C C ( ( ( ( ( Z C C C D G q i h J J J J ` ' ` ` ` ' ' ' ' ' ' ' _ ' ' ' ) J J J f ",
"a f f i 8 q G D S S Z S m T T T m A Z A Z D F q g U P J J P ` ' ' ` ) ' ' ' n ' ' ` ) _ _ ' ` J f f a ",
"a f f i 0 0 q H H F F F C ` ` ` N F H F F H q p q i h P P Q P ' ' ` ` ` ' ' ` ` ` ` ' ` ` ' h f f f a ",
"a f f i 0 0 0 r r r r q u ) ) ) d z z z z z r L q i f f Q Q Q E E P W W W G G G q h h h h h a a f f a ",
"h J J h k J Y k g g g y ~ ~ ~ ~ ~ Y Y Y Y Y L Y 0 y f f Q Q Q Q Q Q ! ! C A A A A h J J J a a a f f f ",
"f J J J Y P Y P P J J Z A A A Z Z Z ! ! ! ! Q ! a f f f Q Q Q Q Q ! ! ( ( ( ( ^ / / f Q a a a a J J J ",
"[ <.<.<.=.<.,.,.,.,.,.<.<.,.,.,.,.<.<.<.>.>.>.>.>.>.>.*.*.<.<.<.<.*.<.,.%.<.,.,.,.*.:.*.,.,.,.*.:.>.>.",
"%.<.=.O.O...,.,.,.%.*.*.,.*.<.%.,.-.*.=.<.-.-.%.<.:.<.<.-.<.-.O.,.,.%.*.O.,.,.,.,.,.<.=.,. .,.%.>.>.:.",
"<.| *.=.=.,.O.,.,.,.<.O.<.>.-.<.-.<.*.<.X.*.<.*.*.<.%.>.,.o.o.&.#.$.&.$.} [ *.*.*.*.,.,.,.*.*.$.[ %.%.",
"o.=.=.=.,...,.=.>.<.-.<.<.*.>.>.>.<.>.:.>.>.:.>.>.%.*.*.<.O.>.*.<.,.*.<.>.<.*.,.%.<.,.,.,.O.-.,.>.*.-.",
"7 7 q 4 4 #   $ k k L L I I I I I I I I 8 t t t e L 8 8 q k I L - O ; I 8 w 8 q s 4 7 q 4 w s q w w q ",
"h h h a a = X > ! Q Q ! ! ! ! ! ! ! ! J J P P P P Q f f h Q Q ! 9 % 9 a J J f E a a a a a P ! J J J J ",
"f f f a a * X 9 ! Q Q Q ! ! ! ! ! ! ! J J P P P P Q Q f f Q Q ! 9 % = J J J J a a a a a P E h f J J J ",
"a f f a a * X 9 ! Q Q ! ! ! ! ! ! ! f J P P P P P Q Q f f E ! ! 9 % ; J J J J h ! a a a Q E f f J J J ",
"a f f a a * O 6 Q Q Q ! ! ! ! Q Q f f f P P P P P Q P j f E ! ! 9 O ; J J J P ! ! ! a P Q J J f J J f ",
"a f f a a * $ 6 Q Q Q Q ! ! Q Q Q P P J P P P P Q ! ! j f E ! ! = O ; J J Q Q ! ! ! f f J J J f J J f ",
"f J f a r * @ 9 Q Q Q Q Q Q Q Q Q Q P ! Q P P P Q ! ! f J J ! f = o = Q P P Q Q ! f f f f J J f J J f ",
"J J J h a - @ > Q Q Q Q Q Q Q Q Q Q Q Q Q P P P Q Q ! f J J E a * % , P P P Q Q ! f f f E E a f J J f ",
"J J J J J 6 $ w ! Q Q Q Q Q Q Q Q Q Q Q Q P P P Q Q ! f a a a a * @ : P P P Q Q J f f E E E a f J J J ",
"J J J J P 6 @ w ! ! Q Q Q Q Q Q Q Q Q Q Q P P Q Q Q ! a a a a a 9 @ : P P Q Q Q a f f E E a a f J J J ",
"J J J J E 6 $ 6 ! ! ! J E E E E ! Q Q Q Q P P Q Q Q ! a a a a a : @ : P Q Q Q Q a f f E a a a f J J J ",
"J J J P E 6 $ 6 ! ! f J J P E ! E E E Q Q J f E Q Q ! a a a a a : O : P P Q Q a a a a a a a a J E E J ",
"J E E E E > $ 6 Q J f f a J P P P P P Q Q J E P P E Q a a a a P ; O : P P P E a a a a a a a J J E E J ",
"J E E E E > @ 6 J J f f f J J J P P P Q J J J P P J J f a a f f ; O : P P P J f a a a a a f J J J J J ",
"J E E Q Q 6 $ ; J J f f J P E Q Q Q Q Q E E P P P E P J J J J P : + : P P P J J J f f J J E E J J J J ",
"J E Q Q Q 6 $ > J J f J P E E E Q Q Q Q E E P P P P P J J J J P : + : P P P P J f f J P P E E J J f f ",
"J P E E E > @ ; J f f J J P E E Q Q Q E E P J J P P P J J J J P : + : P P J J f f J J J P P J f f f f "
};
