/* XPM */
static char *_6278fc1bf0845bee6b53e1c7a09960dg98bSJosa2cfOaA1[] = {
/* columns rows colors chars-per-pixel */
"64 64 24 1 ",
"  c black",
". c #030F1F",
"X c #08172C",
"o c #770000",
"O c #102542",
"+ c #112642",
"@ c #243C5C",
"# c #233F65",
"$ c #294061",
"% c #304E77",
"& c #A31414",
"* c #AA1D1D",
"= c #BD1414",
"- c #C61F1F",
"; c #435C80",
": c #4A6488",
"> c #7B90AB",
", c #99ACC6",
"< c #D3CFCF",
"1 c gainsboro",
"2 c #C1CEE0",
"3 c #EAEAEA",
"4 c gray95",
"5 c white",
/* pixels */
"                                                                ",
"                                                                ",
"                                                                ",
"                                                                ",
"                                                                ",
"                                                                ",
"                                                                ",
"                                                                ",
"                                                                ",
"                                                                ",
"                                                                ",
"                                                                ",
"                                                                ",
"                                                                ",
"                                                                ",
"                                                                ",
"                                                                ",
"                                                                ",
"                                                                ",
"                                                                ",
"                                                                ",
"                                                                ",
"                                                                ",
"                                                                ",
"                                                                ",
"                                                                ",
"                                                                ",
"                                                                ",
"                                                                ",
"                                                                ",
"                                                                ",
"                                                                ",
"                                                                ",
"                                                                ",
"                                                                ",
"                                                                ",
"                                                                ",
"                                                                ",
"                                                                ",
"                                                                ",
"                                                                ",
"                                                                ",
"                                                                ",
"                           @@@@@@@@@@                           ",
"                          ;;55555555@@                          ",
"                         ::<55<<<<55<@@                         ",
"                         :<55:;@@@@55<@                         ",
"                         >55:;    @@55@                         ",
"                     2,,>>55:;@@@@@@55@%%%%                     ",
"                     ,555555=------=555555%                     ",
"                     ,455555=------=555555%                     ",
"                     >355555=------=555555%                     ",
"                     :535555=--55--=555535@                     ",
"                     :535555=--55--=555535@                     ",
"                     :535555=555555=555535@                     ",
"                     :555555=115511=555355@                     ",
"                     :555555=oo55oo=555355@                     ",
"                     @553555=--55--=553555@                     ",
"                     @553555=--oo--=553555@                     ",
"                     #555455=------=555555X                     ",
"                     #555555&******&555555.                     ",
"                     %111111&******&111111.                     ",
"                     %111111&******&111111.                     ",
"                     %$$$$OO++++OOOOOOXX...                     "
};
