/* XPM */
static char *cc32de9eb4e542a9ceedc18765db1789pWL7xXkDMnn9t5Wv[] = {
/* columns rows colors chars-per-pixel */
"64 64 22 1 ",
"  c black",
". c gray12",
"X c #8C4419",
"o c #A1571F",
"O c #AD5D21",
"+ c #B96523",
"@ c #C46B25",
"# c #CB772D",
"$ c #DD962F",
"% c #D18736",
"& c #E29F31",
"* c #E2A732",
"= c #E9B837",
"- c #C3874F",
"; c #D2A15B",
": c #A7AAAC",
"> c #B8BBBD",
", c #BABEC1",
"< c #BEC2C5",
"1 c #C6C9CC",
"2 c #D3D6D8",
"3 c #DEDFE0",
/* pixels */
"                                                                ",
"                                                                ",
"                                                                ",
"                                                                ",
"                                                                ",
"                                                                ",
"                                                                ",
"                                                                ",
"                                                                ",
"                                                                ",
"                                                                ",
"                                                                ",
"                                                                ",
"                                                                ",
"                                                                ",
"                                                                ",
"                                                                ",
"                                                                ",
"                                                                ",
"                                                                ",
"                                                                ",
"                                                                ",
"                                                                ",
"                                                                ",
"                                                                ",
"                                                                ",
"                                                                ",
"                                                                ",
"                                                                ",
"                                                                ",
"                                                                ",
"                                                                ",
"                              ....                              ",
"                             ..##..                             ",
"                             .%###.                             ",
"                             .%###.                             ",
"                             .%%##.                             ",
"                            .1;%%;1.                            ",
"                            .32,<<,.                            ",
"                            .32,<<,.                            ",
"                           .:31,,<,,.                           ",
"                           .121,,<<>.                           ",
"                           .22,,,1<>.                           ",
"                          .O###-;#+oX.                          ",
"                          .+######+oX.                          ",
"                          .########oX.                          ",
"                         .o########oXX.                         ",
"                         .o########OXX.                         ",
"                         .:########OX<.                         ",
"                         .113-@###-<1:.                         ",
"                        .:11122<<111:<1.                        ",
"                      ...:311321,<1,,>,...                      ",
"                     .@@-<333222111>,><@@@.                     ",
"                     .@@X1231121<111:11@@@.                     ",
"                    .@@@X#-1121<><1>1XX@@@#.                    ",
"                    .@@@o####@;>:;###OXX###.                    ",
"                    .@@#@####@@#######OX###.                    ",
"                   .@@@@@@###@@#######O@$$$&.                   ",
"                   .@#####@@@@@#####++#$****.                   ",
"                   .###%%%%@@@@@@@@@%*$*====.                   ",
"                  .$$$$$$$$$$$$$$$$&&**======.                  ",
"                  .&******$$$$$$&&&&&*=======.                  ",
"                  .OOOOOOOOOOOOOOOOOOOOOOOOOO.                  ",
"                  ............................                  "
};
